<?xml version="1.0" encoding="UTF-8" standalone="no"?>
<!DOCTYPE svg PUBLIC "-//W3C//DTD SVG 1.1//EN"
 "http://www.w3.org/Graphics/SVG/1.1/DTD/svg11.dtd">
<!-- Generated by graphviz version 2.44.1 (20200629.0846)
 -->
<!-- Pages: 1 -->
<svg width="1378pt" height="404pt"
 viewBox="0.00 0.00 1377.72 404.00" xmlns="http://www.w3.org/2000/svg" xmlns:xlink="http://www.w3.org/1999/xlink">
<g id="graph0" class="graph" transform="scale(1 1) rotate(0) translate(4 400)">
<polygon fill="white" stroke="transparent" points="-4,4 -4,-400 1373.72,-400 1373.72,4 -4,4"/>
<!-- [root] github_repository.repo&#45;man (expand) -->
<g id="node1" class="node">
<title>[root] github_repository.repo&#45;man (expand)</title>
<polygon fill="none" stroke="black" points="348.72,-180 180.72,-180 180.72,-144 348.72,-144 348.72,-180"/>
<text text-anchor="middle" x="264.72" y="-158.3" font-family="Times,serif" font-size="14.00">github_repository.repo&#45;man</text>
</g>
<!-- [root] provider[&quot;registry.terraform.io/hashicorp/github&quot;] -->
<g id="node2" class="node">
<title>[root] provider[&quot;registry.terraform.io/hashicorp/github&quot;]</title>
<polygon fill="none" stroke="black" points="264.72,-108 -0.22,-90 264.72,-72 529.65,-90 264.72,-108"/>
<text text-anchor="middle" x="264.72" y="-86.3" font-family="Times,serif" font-size="14.00">provider[&quot;registry.terraform.io/hashicorp/github&quot;]</text>
</g>
<!-- [root] github_repository.repo&#45;man (expand)&#45;&gt;[root] provider[&quot;registry.terraform.io/hashicorp/github&quot;] -->
<g id="edge1" class="edge">
<title>[root] github_repository.repo&#45;man (expand)&#45;&gt;[root] provider[&quot;registry.terraform.io/hashicorp/github&quot;]</title>
<path fill="none" stroke="black" d="M264.72,-143.7C264.72,-135.98 264.72,-126.71 264.72,-118.11"/>
<polygon fill="black" stroke="black" points="268.22,-118.1 264.72,-108.1 261.22,-118.1 268.22,-118.1"/>
</g>
<!-- [root] var.github_token -->
<g id="node11" class="node">
<title>[root] var.github_token</title>
<polygon fill="none" stroke="black" points="459.72,-36 357.72,-36 357.72,0 465.72,0 465.72,-30 459.72,-36"/>
<polyline fill="none" stroke="black" points="459.72,-36 459.72,-30 "/>
<polyline fill="none" stroke="black" points="465.72,-30 459.72,-30 "/>
<text text-anchor="middle" x="411.72" y="-14.3" font-family="Times,serif" font-size="14.00">var.github_token</text>
</g>
<!-- [root] provider[&quot;registry.terraform.io/hashicorp/github&quot;]&#45;&gt;[root] var.github_token -->
<g id="edge9" class="edge">
<title>[root] provider[&quot;registry.terraform.io/hashicorp/github&quot;]&#45;&gt;[root] var.github_token</title>
<path fill="none" stroke="black" d="M296.25,-73.98C316.79,-64.2 343.9,-51.29 366.7,-40.44"/>
<polygon fill="black" stroke="black" points="368.32,-43.54 375.84,-36.08 365.31,-37.22 368.32,-43.54"/>
</g>
<!-- [root] provider[&quot;registry.terraform.io/hashicorp/tfe&quot;] -->
<g id="node3" class="node">
<title>[root] provider[&quot;registry.terraform.io/hashicorp/tfe&quot;]</title>
<polygon fill="none" stroke="black" points="983.72,-108 737.55,-90 983.72,-72 1229.89,-90 983.72,-108"/>
<text text-anchor="middle" x="983.72" y="-86.3" font-family="Times,serif" font-size="14.00">provider[&quot;registry.terraform.io/hashicorp/tfe&quot;]</text>
</g>
<!-- [root] var.hostname -->
<g id="node12" class="node">
<title>[root] var.hostname</title>
<polygon fill="none" stroke="black" points="1070.22,-36 987.22,-36 987.22,0 1076.22,0 1076.22,-30 1070.22,-36"/>
<polyline fill="none" stroke="black" points="1070.22,-36 1070.22,-30 "/>
<polyline fill="none" stroke="black" points="1076.22,-30 1070.22,-30 "/>
<text text-anchor="middle" x="1031.72" y="-14.3" font-family="Times,serif" font-size="14.00">var.hostname</text>
</g>
<!-- [root] provider[&quot;registry.terraform.io/hashicorp/tfe&quot;]&#45;&gt;[root] var.hostname -->
<g id="edge14" class="edge">
<title>[root] provider[&quot;registry.terraform.io/hashicorp/tfe&quot;]&#45;&gt;[root] var.hostname</title>
<path fill="none" stroke="black" d="M994.85,-72.76C1000.62,-64.35 1007.79,-53.89 1014.28,-44.44"/>
<polygon fill="black" stroke="black" points="1017.21,-46.35 1019.98,-36.12 1011.43,-42.39 1017.21,-46.35"/>
</g>
<!-- [root] var.token -->
<g id="node15" class="node">
<title>[root] var.token</title>
<polygon fill="none" stroke="black" points="963.22,-36 902.22,-36 902.22,0 969.22,0 969.22,-30 963.22,-36"/>
<polyline fill="none" stroke="black" points="963.22,-36 963.22,-30 "/>
<polyline fill="none" stroke="black" points="969.22,-30 963.22,-30 "/>
<text text-anchor="middle" x="935.72" y="-14.3" font-family="Times,serif" font-size="14.00">var.token</text>
</g>
<!-- [root] provider[&quot;registry.terraform.io/hashicorp/tfe&quot;]&#45;&gt;[root] var.token -->
<g id="edge15" class="edge">
<title>[root] provider[&quot;registry.terraform.io/hashicorp/tfe&quot;]&#45;&gt;[root] var.token</title>
<path fill="none" stroke="black" d="M972.58,-72.76C966.82,-64.35 959.64,-53.89 953.16,-44.44"/>
<polygon fill="black" stroke="black" points="956,-42.39 947.46,-36.12 950.23,-46.35 956,-42.39"/>
</g>
<!-- [root] tfe_oauth_client.oauth&#45;baby (expand) -->
<g id="node4" class="node">
<title>[root] tfe_oauth_client.oauth&#45;baby (expand)</title>
<polygon fill="none" stroke="black" points="747.22,-180 578.22,-180 578.22,-144 747.22,-144 747.22,-180"/>
<text text-anchor="middle" x="662.72" y="-158.3" font-family="Times,serif" font-size="14.00">tfe_oauth_client.oauth&#45;baby</text>
</g>
<!-- [root] tfe_oauth_client.oauth&#45;baby (expand)&#45;&gt;[root] provider[&quot;registry.terraform.io/hashicorp/tfe&quot;] -->
<g id="edge19" class="edge">
<title>[root] tfe_oauth_client.oauth&#45;baby (expand)&#45;&gt;[root] provider[&quot;registry.terraform.io/hashicorp/tfe&quot;]</title>
<path fill="none" stroke="black" d="M740.83,-143.97C794.16,-132.34 864.13,-117.08 915.27,-105.93"/>
<polygon fill="black" stroke="black" points="916.21,-109.3 925.23,-103.75 914.72,-102.46 916.21,-109.3"/>
</g>
<!-- [root] tfe_oauth_client.oauth&#45;baby (expand)&#45;&gt;[root] var.github_token -->
<g id="edge20" class="edge">
<title>[root] tfe_oauth_client.oauth&#45;baby (expand)&#45;&gt;[root] var.github_token</title>
<path fill="none" stroke="black" d="M631.45,-143.83C614.68,-134.1 593.96,-121.25 576.72,-108 558.27,-93.82 558.22,-84.69 538.72,-72 518.74,-59 495.06,-48.09 473.58,-39.61"/>
<polygon fill="black" stroke="black" points="474.8,-36.33 464.21,-36 472.29,-42.86 474.8,-36.33"/>
</g>
<!-- [root] var.new_organization -->
<g id="node14" class="node">
<title>[root] var.new_organization</title>
<polygon fill="none" stroke="black" points="713.72,-108 585.72,-108 585.72,-72 719.72,-72 719.72,-102 713.72,-108"/>
<polyline fill="none" stroke="black" points="713.72,-108 713.72,-102 "/>
<polyline fill="none" stroke="black" points="719.72,-102 713.72,-102 "/>
<text text-anchor="middle" x="652.72" y="-86.3" font-family="Times,serif" font-size="14.00">var.new_organization</text>
</g>
<!-- [root] tfe_oauth_client.oauth&#45;baby (expand)&#45;&gt;[root] var.new_organization -->
<g id="edge21" class="edge">
<title>[root] tfe_oauth_client.oauth&#45;baby (expand)&#45;&gt;[root] var.new_organization</title>
<path fill="none" stroke="black" d="M660.25,-143.7C659.14,-135.98 657.82,-126.71 656.59,-118.11"/>
<polygon fill="black" stroke="black" points="660.04,-117.51 655.16,-108.1 653.11,-118.5 660.04,-117.51"/>
</g>
<!-- [root] tfe_organization.organization (expand) -->
<g id="node5" class="node">
<title>[root] tfe_organization.organization (expand)</title>
<polygon fill="none" stroke="black" points="1005.72,-180 829.72,-180 829.72,-144 1005.72,-144 1005.72,-180"/>
<text text-anchor="middle" x="917.72" y="-158.3" font-family="Times,serif" font-size="14.00">tfe_organization.organization</text>
</g>
<!-- [root] tfe_organization.organization (expand)&#45;&gt;[root] provider[&quot;registry.terraform.io/hashicorp/tfe&quot;] -->
<g id="edge22" class="edge">
<title>[root] tfe_organization.organization (expand)&#45;&gt;[root] provider[&quot;registry.terraform.io/hashicorp/tfe&quot;]</title>
<path fill="none" stroke="black" d="M934.03,-143.7C942.35,-134.88 952.58,-124.03 961.59,-114.47"/>
<polygon fill="black" stroke="black" points="964.18,-116.82 968.5,-107.14 959.09,-112.02 964.18,-116.82"/>
</g>
<!-- [root] var.new_org_email -->
<g id="node13" class="node">
<title>[root] var.new_org_email</title>
<polygon fill="none" stroke="black" points="1363.72,-108 1247.72,-108 1247.72,-72 1369.72,-72 1369.72,-102 1363.72,-108"/>
<polyline fill="none" stroke="black" points="1363.72,-108 1363.72,-102 "/>
<polyline fill="none" stroke="black" points="1369.72,-102 1363.72,-102 "/>
<text text-anchor="middle" x="1308.72" y="-86.3" font-family="Times,serif" font-size="14.00">var.new_org_email</text>
</g>
<!-- [root] tfe_organization.organization (expand)&#45;&gt;[root] var.new_org_email -->
<g id="edge23" class="edge">
<title>[root] tfe_organization.organization (expand)&#45;&gt;[root] var.new_org_email</title>
<path fill="none" stroke="black" d="M1005.92,-148.25C1068.13,-138.83 1153.6,-125.05 1237.71,-108.13"/>
<polygon fill="black" stroke="black" points="1238.59,-111.52 1247.69,-106.1 1237.2,-104.66 1238.59,-111.52"/>
</g>
<!-- [root] tfe_organization.organization (expand)&#45;&gt;[root] var.new_organization -->
<g id="edge24" class="edge">
<title>[root] tfe_organization.organization (expand)&#45;&gt;[root] var.new_organization</title>
<path fill="none" stroke="black" d="M853.23,-143.97C815.24,-133.93 767.01,-121.19 727.37,-110.72"/>
<polygon fill="black" stroke="black" points="728.06,-107.28 717.49,-108.11 726.27,-114.05 728.06,-107.28"/>
</g>
<!-- [root] tfe_team.dev (expand) -->
<g id="node6" class="node">
<title>[root] tfe_team.dev (expand)</title>
<polygon fill="none" stroke="black" points="852.72,-252 764.72,-252 764.72,-216 852.72,-216 852.72,-252"/>
<text text-anchor="middle" x="808.72" y="-230.3" font-family="Times,serif" font-size="14.00">tfe_team.dev</text>
</g>
<!-- [root] tfe_team.dev (expand)&#45;&gt;[root] tfe_organization.organization (expand) -->
<g id="edge25" class="edge">
<title>[root] tfe_team.dev (expand)&#45;&gt;[root] tfe_organization.organization (expand)</title>
<path fill="none" stroke="black" d="M835.38,-215.88C849.5,-206.81 867.03,-195.55 882.28,-185.76"/>
<polygon fill="black" stroke="black" points="884.43,-188.54 890.95,-180.19 880.64,-182.65 884.43,-188.54"/>
</g>
<!-- [root] tfe_team.prod (expand) -->
<g id="node7" class="node">
<title>[root] tfe_team.prod (expand)</title>
<polygon fill="none" stroke="black" points="964.22,-252 871.22,-252 871.22,-216 964.22,-216 964.22,-252"/>
<text text-anchor="middle" x="917.72" y="-230.3" font-family="Times,serif" font-size="14.00">tfe_team.prod</text>
</g>
<!-- [root] tfe_team.prod (expand)&#45;&gt;[root] tfe_organization.organization (expand) -->
<g id="edge26" class="edge">
<title>[root] tfe_team.prod (expand)&#45;&gt;[root] tfe_organization.organization (expand)</title>
<path fill="none" stroke="black" d="M917.72,-215.7C917.72,-207.98 917.72,-198.71 917.72,-190.11"/>
<polygon fill="black" stroke="black" points="921.22,-190.1 917.72,-180.1 914.22,-190.1 921.22,-190.1"/>
</g>
<!-- [root] tfe_team.test (expand) -->
<g id="node8" class="node">
<title>[root] tfe_team.test (expand)</title>
<polygon fill="none" stroke="black" points="1069.22,-252 982.22,-252 982.22,-216 1069.22,-216 1069.22,-252"/>
<text text-anchor="middle" x="1025.72" y="-230.3" font-family="Times,serif" font-size="14.00">tfe_team.test</text>
</g>
<!-- [root] tfe_team.test (expand)&#45;&gt;[root] tfe_organization.organization (expand) -->
<g id="edge27" class="edge">
<title>[root] tfe_team.test (expand)&#45;&gt;[root] tfe_organization.organization (expand)</title>
<path fill="none" stroke="black" d="M999.3,-215.88C985.31,-206.81 967.94,-195.55 952.83,-185.76"/>
<polygon fill="black" stroke="black" points="954.53,-182.69 944.24,-180.19 950.73,-188.57 954.53,-182.69"/>
</g>
<!-- [root] tfe_workspace.workspace (expand) -->
<g id="node9" class="node">
<title>[root] tfe_workspace.workspace (expand)</title>
<polygon fill="none" stroke="black" points="746.22,-252 589.22,-252 589.22,-216 746.22,-216 746.22,-252"/>
<text text-anchor="middle" x="667.72" y="-230.3" font-family="Times,serif" font-size="14.00">tfe_workspace.workspace</text>
</g>
<!-- [root] tfe_workspace.workspace (expand)&#45;&gt;[root] github_repository.repo&#45;man (expand) -->
<g id="edge28" class="edge">
<title>[root] tfe_workspace.workspace (expand)&#45;&gt;[root] github_repository.repo&#45;man (expand)</title>
<path fill="none" stroke="black" d="M589.06,-219.34C523.12,-207.88 428.81,-191.5 358.87,-179.35"/>
<polygon fill="black" stroke="black" points="359.19,-175.86 348.74,-177.59 357.99,-182.75 359.19,-175.86"/>
</g>
<!-- [root] tfe_workspace.workspace (expand)&#45;&gt;[root] tfe_oauth_client.oauth&#45;baby (expand) -->
<g id="edge29" class="edge">
<title>[root] tfe_workspace.workspace (expand)&#45;&gt;[root] tfe_oauth_client.oauth&#45;baby (expand)</title>
<path fill="none" stroke="black" d="M666.48,-215.7C665.93,-207.98 665.27,-198.71 664.65,-190.11"/>
<polygon fill="black" stroke="black" points="668.14,-189.83 663.94,-180.1 661.16,-190.33 668.14,-189.83"/>
</g>
<!-- [root] tfe_workspace.workspace (expand)&#45;&gt;[root] tfe_organization.organization (expand) -->
<g id="edge30" class="edge">
<title>[root] tfe_workspace.workspace (expand)&#45;&gt;[root] tfe_organization.organization (expand)</title>
<path fill="none" stroke="black" d="M728.55,-215.97C764.24,-205.97 809.51,-193.3 846.81,-182.85"/>
<polygon fill="black" stroke="black" points="847.92,-186.18 856.61,-180.11 846.03,-179.44 847.92,-186.18"/>
</g>
<!-- [root] var.github_organization -->
<g id="node10" class="node">
<title>[root] var.github_organization</title>
<polygon fill="none" stroke="black" points="1340.72,-252 1200.72,-252 1200.72,-216 1346.72,-216 1346.72,-246 1340.72,-252"/>
<polyline fill="none" stroke="black" points="1340.72,-252 1340.72,-246 "/>
<polyline fill="none" stroke="black" points="1346.72,-246 1340.72,-246 "/>
<text text-anchor="middle" x="1273.72" y="-230.3" font-family="Times,serif" font-size="14.00">var.github_organization</text>
</g>
<!-- [root] var.workspace -->
<g id="node16" class="node">
<title>[root] var.workspace</title>
<polygon fill="none" stroke="black" points="1176.22,-252 1087.22,-252 1087.22,-216 1182.22,-216 1182.22,-246 1176.22,-252"/>
<polyline fill="none" stroke="black" points="1176.22,-252 1176.22,-246 "/>
<polyline fill="none" stroke="black" points="1182.22,-246 1176.22,-246 "/>
<text text-anchor="middle" x="1134.72" y="-230.3" font-family="Times,serif" font-size="14.00">var.workspace</text>
</g>
<!-- [root] meta.count&#45;boundary (EachMode fixup) -->
<g id="node17" class="node">
<title>[root] meta.count&#45;boundary (EachMode fixup)</title>
<ellipse fill="none" stroke="black" cx="1134.72" cy="-306" rx="176.27" ry="18"/>
<text text-anchor="middle" x="1134.72" y="-302.3" font-family="Times,serif" font-size="14.00">[root] meta.count&#45;boundary (EachMode fixup)</text>
</g>
<!-- [root] meta.count&#45;boundary (EachMode fixup)&#45;&gt;[root] tfe_team.dev (expand) -->
<g id="edge2" class="edge">
<title>[root] meta.count&#45;boundary (EachMode fixup)&#45;&gt;[root] tfe_team.dev (expand)</title>
<path fill="none" stroke="black" d="M1046.27,-290.36C992.8,-280.87 923.45,-267.43 862.72,-252 862.62,-251.97 862.51,-251.95 862.41,-251.92"/>
<polygon fill="black" stroke="black" points="863.37,-248.56 852.81,-249.32 861.55,-255.31 863.37,-248.56"/>
</g>
<!-- [root] meta.count&#45;boundary (EachMode fixup)&#45;&gt;[root] tfe_team.prod (expand) -->
<g id="edge3" class="edge">
<title>[root] meta.count&#45;boundary (EachMode fixup)&#45;&gt;[root] tfe_team.prod (expand)</title>
<path fill="none" stroke="black" d="M1084.11,-288.68C1051.17,-278.05 1008.16,-264.18 974.12,-253.19"/>
<polygon fill="black" stroke="black" points="974.91,-249.77 964.32,-250.03 972.76,-256.43 974.91,-249.77"/>
</g>
<!-- [root] meta.count&#45;boundary (EachMode fixup)&#45;&gt;[root] tfe_team.test (expand) -->
<g id="edge4" class="edge">
<title>[root] meta.count&#45;boundary (EachMode fixup)&#45;&gt;[root] tfe_team.test (expand)</title>
<path fill="none" stroke="black" d="M1108.33,-288.05C1094.11,-278.92 1076.37,-267.53 1060.98,-257.65"/>
<polygon fill="black" stroke="black" points="1062.54,-254.49 1052.24,-252.03 1058.76,-260.38 1062.54,-254.49"/>
</g>
<!-- [root] meta.count&#45;boundary (EachMode fixup)&#45;&gt;[root] tfe_workspace.workspace (expand) -->
<g id="edge5" class="edge">
<title>[root] meta.count&#45;boundary (EachMode fixup)&#45;&gt;[root] tfe_workspace.workspace (expand)</title>
<path fill="none" stroke="black" d="M1028.3,-291.62C954.74,-282.02 854.39,-268.22 756.45,-252.07"/>
<polygon fill="black" stroke="black" points="756.8,-248.59 746.36,-250.4 755.66,-255.49 756.8,-248.59"/>
</g>
<!-- [root] meta.count&#45;boundary (EachMode fixup)&#45;&gt;[root] var.github_organization -->
<g id="edge6" class="edge">
<title>[root] meta.count&#45;boundary (EachMode fixup)&#45;&gt;[root] var.github_organization</title>
<path fill="none" stroke="black" d="M1168.01,-288.23C1186.82,-278.76 1210.53,-266.82 1230.73,-256.65"/>
<polygon fill="black" stroke="black" points="1232.37,-259.74 1239.73,-252.12 1229.22,-253.49 1232.37,-259.74"/>
</g>
<!-- [root] meta.count&#45;boundary (EachMode fixup)&#45;&gt;[root] var.workspace -->
<g id="edge7" class="edge">
<title>[root] meta.count&#45;boundary (EachMode fixup)&#45;&gt;[root] var.workspace</title>
<path fill="none" stroke="black" d="M1134.72,-287.7C1134.72,-279.98 1134.72,-270.71 1134.72,-262.11"/>
<polygon fill="black" stroke="black" points="1138.22,-262.1 1134.72,-252.1 1131.22,-262.1 1138.22,-262.1"/>
</g>
<!-- [root] provider[&quot;registry.terraform.io/hashicorp/github&quot;] (close) -->
<g id="node18" class="node">
<title>[root] provider[&quot;registry.terraform.io/hashicorp/github&quot;] (close)</title>
<ellipse fill="none" stroke="black" cx="240.72" cy="-306" rx="235.86" ry="18"/>
<text text-anchor="middle" x="240.72" y="-302.3" font-family="Times,serif" font-size="14.00">[root] provider[&quot;registry.terraform.io/hashicorp/github&quot;] (close)</text>
</g>
<!-- [root] provider[&quot;registry.terraform.io/hashicorp/github&quot;] (close)&#45;&gt;[root] github_repository.repo&#45;man (expand) -->
<g id="edge8" class="edge">
<title>[root] provider[&quot;registry.terraform.io/hashicorp/github&quot;] (close)&#45;&gt;[root] github_repository.repo&#45;man (expand)</title>
<path fill="none" stroke="black" d="M243.61,-287.87C247.7,-263.67 255.22,-219.21 260.09,-190.39"/>
<polygon fill="black" stroke="black" points="263.6,-190.63 261.81,-180.19 256.69,-189.47 263.6,-190.63"/>
</g>
<!-- [root] provider[&quot;registry.terraform.io/hashicorp/tfe&quot;] (close) -->
<g id="node19" class="node">
<title>[root] provider[&quot;registry.terraform.io/hashicorp/tfe&quot;] (close)</title>
<ellipse fill="none" stroke="black" cx="717.72" cy="-306" rx="222.86" ry="18"/>
<text text-anchor="middle" x="717.72" y="-302.3" font-family="Times,serif" font-size="14.00">[root] provider[&quot;registry.terraform.io/hashicorp/tfe&quot;] (close)</text>
</g>
<!-- [root] provider[&quot;registry.terraform.io/hashicorp/tfe&quot;] (close)&#45;&gt;[root] tfe_team.dev (expand) -->
<g id="edge10" class="edge">
<title>[root] provider[&quot;registry.terraform.io/hashicorp/tfe&quot;] (close)&#45;&gt;[root] tfe_team.dev (expand)</title>
<path fill="none" stroke="black" d="M739.75,-288.05C751.4,-279.09 765.87,-267.96 778.55,-258.2"/>
<polygon fill="black" stroke="black" points="780.78,-260.9 786.58,-252.03 776.52,-255.35 780.78,-260.9"/>
</g>
<!-- [root] provider[&quot;registry.terraform.io/hashicorp/tfe&quot;] (close)&#45;&gt;[root] tfe_team.prod (expand) -->
<g id="edge11" class="edge">
<title>[root] provider[&quot;registry.terraform.io/hashicorp/tfe&quot;] (close)&#45;&gt;[root] tfe_team.prod (expand)</title>
<path fill="none" stroke="black" d="M765.11,-288.41C793.99,-278.31 831.04,-265.34 861.4,-254.71"/>
<polygon fill="black" stroke="black" points="862.72,-257.96 871.01,-251.35 860.41,-251.35 862.72,-257.96"/>
</g>
<!-- [root] provider[&quot;registry.terraform.io/hashicorp/tfe&quot;] (close)&#45;&gt;[root] tfe_team.test (expand) -->
<g id="edge12" class="edge">
<title>[root] provider[&quot;registry.terraform.io/hashicorp/tfe&quot;] (close)&#45;&gt;[root] tfe_team.test (expand)</title>
<path fill="none" stroke="black" d="M805.08,-289.42C852.3,-280.41 911.73,-268.12 972.39,-252.22"/>
<polygon fill="black" stroke="black" points="973.36,-255.59 982.13,-249.64 971.57,-248.82 973.36,-255.59"/>
</g>
<!-- [root] provider[&quot;registry.terraform.io/hashicorp/tfe&quot;] (close)&#45;&gt;[root] tfe_workspace.workspace (expand) -->
<g id="edge13" class="edge">
<title>[root] provider[&quot;registry.terraform.io/hashicorp/tfe&quot;] (close)&#45;&gt;[root] tfe_workspace.workspace (expand)</title>
<path fill="none" stroke="black" d="M705.36,-287.7C699.48,-279.47 692.35,-269.48 685.87,-260.42"/>
<polygon fill="black" stroke="black" points="688.6,-258.21 679.93,-252.1 682.9,-262.28 688.6,-258.21"/>
</g>
<!-- [root] root -->
<g id="node20" class="node">
<title>[root] root</title>
<ellipse fill="none" stroke="black" cx="717.72" cy="-378" rx="47.39" ry="18"/>
<text text-anchor="middle" x="717.72" y="-374.3" font-family="Times,serif" font-size="14.00">[root] root</text>
</g>
<!-- [root] root&#45;&gt;[root] meta.count&#45;boundary (EachMode fixup) -->
<g id="edge16" class="edge">
<title>[root] root&#45;&gt;[root] meta.count&#45;boundary (EachMode fixup)</title>
<path fill="none" stroke="black" d="M760.38,-369.84C825.04,-358.98 949.58,-338.08 1037.21,-323.37"/>
<polygon fill="black" stroke="black" points="1037.88,-326.8 1047.17,-321.7 1036.73,-319.9 1037.88,-326.8"/>
</g>
<!-- [root] root&#45;&gt;[root] provider[&quot;registry.terraform.io/hashicorp/github&quot;] (close) -->
<g id="edge17" class="edge">
<title>[root] root&#45;&gt;[root] provider[&quot;registry.terraform.io/hashicorp/github&quot;] (close)</title>
<path fill="none" stroke="black" d="M674.12,-370.6C602.34,-360.07 457.02,-338.74 354.5,-323.7"/>
<polygon fill="black" stroke="black" points="354.8,-320.2 344.4,-322.22 353.79,-327.13 354.8,-320.2"/>
</g>
<!-- [root] root&#45;&gt;[root] provider[&quot;registry.terraform.io/hashicorp/tfe&quot;] (close) -->
<g id="edge18" class="edge">
<title>[root] root&#45;&gt;[root] provider[&quot;registry.terraform.io/hashicorp/tfe&quot;] (close)</title>
<path fill="none" stroke="black" d="M717.72,-359.7C717.72,-351.98 717.72,-342.71 717.72,-334.11"/>
<polygon fill="black" stroke="black" points="721.22,-334.1 717.72,-324.1 714.22,-334.1 721.22,-334.1"/>
</g>
</g>
</svg>
